<svg width="18" height="17" viewBox="0 0 18 17" fill="none" xmlns="http://www.w3.org/2000/svg">
<path d="M17.5783 15.9656C16.2851 13.7299 14.2923 12.1268 11.9666 11.3668C13.117 10.682 14.0108 9.63843 14.5107 8.39645C15.0106 7.15447 15.089 5.78272 14.7339 4.49186C14.3787 3.20101 13.6097 2.06242 12.5448 1.25095C11.4799 0.43948 10.1781 0 8.83928 0C7.50046 0 6.19865 0.43948 5.13378 1.25095C4.0689 2.06242 3.29984 3.20101 2.9447 4.49186C2.58955 5.78272 2.66796 7.15447 3.16788 8.39645C3.66781 9.63843 4.5616 10.682 5.712 11.3668C3.38629 12.1259 1.39342 13.729 0.100226 15.9656C0.0528022 16.0429 0.0213463 16.129 0.00771433 16.2187C-0.00591767 16.3083 -0.00144966 16.3998 0.0208547 16.4878C0.0431591 16.5757 0.0828481 16.6583 0.13758 16.7306C0.192312 16.8029 0.260978 16.8636 0.339527 16.9089C0.418076 16.9543 0.504916 16.9835 0.594925 16.9948C0.684934 17.006 0.776287 16.9992 0.863595 16.9745C0.950903 16.9499 1.0324 16.9081 1.10327 16.8515C1.17414 16.7948 1.23296 16.7246 1.27625 16.6449C2.87597 13.8802 5.70351 12.2295 8.83928 12.2295C11.975 12.2295 14.8026 13.8802 16.4023 16.6449C16.4456 16.7246 16.5044 16.7948 16.5753 16.8515C16.6462 16.9081 16.7277 16.9499 16.815 16.9745C16.9023 16.9992 16.9936 17.006 17.0836 16.9948C17.1736 16.9835 17.2605 16.9543 17.339 16.9089C17.4176 16.8636 17.4862 16.8029 17.541 16.7306C17.5957 16.6583 17.6354 16.5757 17.6577 16.4878C17.68 16.3998 17.6845 16.3083 17.6708 16.2187C17.6572 16.129 17.6258 16.0429 17.5783 15.9656ZM4.08426 6.11591C4.08426 5.17546 4.36313 4.25612 4.88562 3.47416C5.40811 2.6922 6.15074 2.08274 7.01961 1.72284C7.88848 1.36295 8.84455 1.26878 9.76694 1.45225C10.6893 1.63573 11.5366 2.0886 12.2016 2.7536C12.8666 3.4186 13.3195 4.26587 13.5029 5.18825C13.6864 6.11064 13.5922 7.06671 13.2323 7.93558C12.8725 8.80445 12.263 9.54708 11.481 10.0696C10.6991 10.5921 9.77973 10.8709 8.83928 10.8709C7.57858 10.8696 6.36991 10.3682 5.47846 9.47673C4.58701 8.58528 4.0856 7.37661 4.08426 6.11591Z" fill="#A4A4A4"/>
</svg>
